<svg xmlns="http://www.w3.org/2000/svg" viewBox="0 0 512 512">
  <defs>
    <linearGradient id="fantasy-gradient" x1="0%" y1="0%" x2="100%" y2="100%">
      <stop offset="0%" style="stop-color:#8A2BE2;stop-opacity:1" />
      <stop offset="100%" style="stop-color:#FF69B4;stop-opacity:1" />
    </linearGradient>
    <filter id="glow" x="-20%" y="-20%" width="140%" height="140%">
      <feGaussianBlur stdDeviation="10" result="blur" />
      <feComposite in="SourceGraphic" in2="blur" operator="over" />
    </filter>
  </defs>
  <path d="M400 32H160c-17.6 0-32 14.4-32 32v242.8c-18.1-6.4-37.7-10.8-58.7-10.8C29.6 296 0 327.6 0 366.6 0 405.6 29.6 437.2 69.3 437.2c39.7 0 71.9-31.6 71.9-70.6V160h242.8v166.8c-18.1-6.4-37.7-10.8-58.7-10.8-39.7 0-69.3 31.6-69.3 70.6 0 39 29.6 70.6 69.3 70.6 39.7 0 71.9-31.6 71.9-70.6V64c0-17.6-14.4-32-32-32z" fill="url(#fantasy-gradient)" filter="url(#glow)"/>
</svg>
